<?xml version="1.0" encoding="utf-8"?>
<!-- Generator: Adobe Illustrator 24.0.1, SVG Export Plug-In . SVG Version: 6.00 Build 0)  -->
<svg version="1.1" id="Layer_1" xmlns="http://www.w3.org/2000/svg" xmlns:xlink="http://www.w3.org/1999/xlink" x="0px" y="0px"
	 viewBox="0 0 99 70" style="enable-background:new 0 0 99 70;" xml:space="preserve">
<style type="text/css">
	.st0{fill-rule:evenodd;clip-rule:evenodd;fill:#2E7BE8;}
	.st1{fill-rule:evenodd;clip-rule:evenodd;fill:#003A70;}
	.st2{fill-rule:evenodd;clip-rule:evenodd;fill:#FFFFFF;}
	.st3{enable-background:new    ;}
	.st4{fill:#FFFFFF;}
</style>
<title>Logo</title>
<desc>Created with Sketch.</desc>
<g id="Logo">
	<circle id="Oval" class="st0" cx="35" cy="35" r="35"/>
	<polygon id="Triangle" class="st1" points="99,2 99,70 35,70 	"/>
	<path id="Rectangle" class="st2" d="M37.5,44c2.5,0,4.5,2,4.5,4.5V70l0,0h-9V48.5C33,46,35,44,37.5,44z"/>
	<path id="Rectangle_1_" class="st2" d="M50.5,39c2.5,0,4.5,2,4.5,4.5V70l0,0h-9V43.5C46,41,48,39,50.5,39z"/>
	<path id="Rectangle_2_" class="st2" d="M63.5,49c2.5,0,4.5,2,4.5,4.5V70l0,0h-9V53.5C59,51,61,49,63.5,49z"/>
	<path id="Rectangle_3_" class="st2" d="M76.5,44c2.5,0,4.5,2,4.5,4.5V70l0,0h-9V48.5C72,46,74,44,76.5,44z"/>
	<path id="Rectangle_4_" class="st2" d="M89.5,35c2.5,0,4.5,2,4.5,4.5V70l0,0h-9V39.5C85,37,87,35,89.5,35z"/>
</g>
<g class="st3">
	<path class="st4" d="M24.3,19.7l1.9,2.9l-8.6,5.1l8.6,4.9l-1.9,3l-10.4-6.4v-3L24.3,19.7z"/>
	<path class="st4" d="M32,39l-3.3-1.5l11.2-23.2l3.2,1.5L32,39z"/>
	<path class="st4" d="M47.7,19.7l10.4,6.4v3l-10.4,6.4l-1.9-2.9l8.6-5.1l-8.6-4.9L47.7,19.7z"/>
</g>
</svg>
